<svg xmlns="http://www.w3.org/2000/svg" viewBox="0 0 128 128"><defs><style>.cls-1{isolation:isolate;}.cls-2{mix-blend-mode:darken;}.cls-3{fill:#70708e;}.cls-4{fill:#4d5db1;opacity:0.06;mix-blend-mode:multiply;}.cls-5{fill:#95c9ef;}.cls-6{fill:#f4dd7d;}.cls-7{fill:#f2a78c;}.cls-8{fill:#dfd6cb;}.cls-9{fill:#fff;}.cls-10{fill:#83ed8a;}.cls-11{fill:none;stroke:#fff;stroke-linecap:round;stroke-linejoin:round;stroke-width:2px;}</style></defs><title>galaxy</title><g class="cls-1"><g id="icons" class="cls-2"><path class="cls-3" d="M116.59,81a1,1,0,0,0-1.35.13c-.13.14-12.16,13.14-30.38,11.6,19-6.67,36.78-23.9,29.47-53.15a1,1,0,0,0-2,.29c0,.19.69,17.89-13.28,29.68,8.72-18.16,9.1-42.91-16.74-58.42a1,1,0,0,0-1.2,1.61c.14.13,13.14,12.16,11.6,30.38-6.67-19-23.9-36.78-53.15-29.47a1,1,0,0,0,.29,2c.2,0,17.89-.69,29.69,13.28-18.16-8.72-42.91-9.1-58.42,16.74a1,1,0,0,0,1.61,1.2c.13-.14,12.19-13.13,30.38-11.6-19,6.67-36.78,23.9-29.46,53.15a1,1,0,0,0,2-.29c0-.19-.69-17.89,13.28-29.68-8.72,18.16-9.1,42.91,16.74,58.42a1,1,0,0,0,1.2-1.61c-.14-.13-13.14-12.16-11.6-30.38,6.67,19,23.9,36.78,53.15,29.47a1,1,0,0,0-.29-2c-.2,0-17.9.66-29.68-13.28,18.16,8.72,42.91,9.1,58.42-16.75A1,1,0,0,0,116.59,81Z"/><path class="cls-4" d="M116.59,81a1,1,0,0,0-1.35.13c-.13.14-12.16,13.14-30.38,11.6,19-6.67,36.78-23.9,29.47-53.15a1,1,0,0,0-2,.29c0,.19.69,17.89-13.28,29.68,8.72-18.16,9.1-42.91-16.74-58.42a1,1,0,0,0-1.2,1.61c.14.13,13.14,12.16,11.6,30.38-6.67-19-23.9-36.78-53.15-29.47a1,1,0,0,0,.29,2c.2,0,17.89-.69,29.69,13.28-18.16-8.72-42.91-9.1-58.42,16.74a1,1,0,0,0,1.61,1.2c.13-.14,12.19-13.13,30.38-11.6-19,6.67-36.78,23.9-29.46,53.15a1,1,0,0,0,2-.29c0-.19-.69-17.89,13.28-29.68-8.72,18.16-9.1,42.91,16.74,58.42a1,1,0,0,0,1.2-1.61c-.14-.13-13.14-12.16-11.6-30.38,6.67,19,23.9,36.78,53.15,29.47a1,1,0,0,0-.29-2c-.2,0-17.9.66-29.68-13.28,18.16,8.72,42.91,9.1,58.42-16.75A1,1,0,0,0,116.59,81Z"/><circle class="cls-5" cx="64" cy="64" r="24"/><path class="cls-4" d="M78.85,45.15a24,24,0,0,1-33.7,33.7,24,24,0,1,0,33.7-33.7Z"/><path class="cls-4" d="M79.94,46.06A24,24,0,0,1,46.06,79.94,24,24,0,1,0,79.94,46.06Z"/><circle class="cls-6" cx="64" cy="64" r="12"/><path class="cls-4" d="M70.24,53.76A12,12,0,0,1,53.76,70.24,12,12,0,1,0,70.24,53.76Z"/><path class="cls-4" d="M71.42,54.58A12,12,0,0,1,54.58,71.42,12,12,0,1,0,71.42,54.58Z"/><circle class="cls-7" cx="24" cy="78" r="4"/><circle class="cls-8" cx="55" cy="18" r="4"/><circle class="cls-6" cx="80" cy="104" r="4"/><circle class="cls-9" cx="82" cy="48" r="4"/><circle class="cls-9" cx="82" cy="48" r="4"/><circle class="cls-10" cx="106" cy="78" r="4"/><path class="cls-11" d="M45.53,59.53a18.9,18.9,0,0,1,5-9"/><path class="cls-11" d="M60.36,45.36a18.44,18.44,0,0,0-5.83,2.17"/><path class="cls-11" d="M64,71a7,7,0,0,0,5.42-2.58"/><path class="cls-4" d="M47,116.59a1,1,0,0,1-.81.41,1.06,1.06,0,0,1-.51-.14A51.33,51.33,0,0,1,34,107.52a38.76,38.76,0,0,1-5.12-6.87,54.46,54.46,0,0,0,9.64,2.55,43.39,43.39,0,0,0,4.2,7.23,35.11,35.11,0,0,0,4.11,4.82A1,1,0,0,1,47,116.59Z"/><path class="cls-4" d="M89.17,113.21a1,1,0,0,1-.75,1.12C76.07,117.42,65.86,116,57.69,112a40.18,40.18,0,0,1-10.87-8c.39,0,.78,0,1.18,0a56.31,56.31,0,0,0,13.58-1.66,37.08,37.08,0,0,0,11.36,7.05,40.79,40.79,0,0,0,15.19,3A1,1,0,0,1,89.17,113.21Z"/><path class="cls-4" d="M116.86,82.32c-8.8,14.67-20.58,20.89-32.44,21.94a48.27,48.27,0,0,1-20-2.71,56.16,56.16,0,0,0,35.63-32.87,38,38,0,0,0,11.4-20.45,36.87,36.87,0,0,0,.89-8.35,1,1,0,0,1,2-.3c3.92,15.68.63,27.91-6.19,36.9-5.91,7.79-14.46,13.16-23.28,16.25a36,36,0,0,0,15-2,41.16,41.16,0,0,0,15.35-9.64,1,1,0,0,1,1.34-.13A1,1,0,0,1,116.86,82.32Z"/><path class="cls-4" d="M46.87,115.25a1,1,0,0,1,.13,1.34,1,1,0,0,1-.81.41,1.06,1.06,0,0,1-.51-.14A51.33,51.33,0,0,1,34,107.52a56.11,56.11,0,0,0,8.72,2.91A35.11,35.11,0,0,0,46.87,115.25Z"/><path class="cls-4" d="M89.17,113.21a1,1,0,0,1-.75,1.12C76.07,117.42,65.86,116,57.69,112a55.67,55.67,0,0,0,15.25-2.58,40.79,40.79,0,0,0,15.19,3A1,1,0,0,1,89.17,113.21Z"/><path class="cls-4" d="M111.46,48.23a36.87,36.87,0,0,0,.89-8.35,1,1,0,0,1,2-.3c3.92,15.68.63,27.91-6.19,36.9A55.91,55.91,0,0,0,112,56,55.31,55.31,0,0,0,111.46,48.23Z"/><path class="cls-4" d="M116.59,81a1,1,0,0,1,.27,1.32c-8.8,14.67-20.58,20.89-32.44,21.94A56.22,56.22,0,0,0,99.9,90.77a41.16,41.16,0,0,0,15.35-9.64A1,1,0,0,1,116.59,81Z"/></g></g></svg>